# xmcd CD database file
#
# Track frame offsets:
#	183
#	19520
#	44743
#	68188
#	112238
#	150618
#	195868
#	210438
#	233903
#
# Disc length: 3251 seconds
#
# Revision: 0
# Processed by: cddbd v1.5.2PL0 Copyright (c) Steve Scherf et al.
# Submitted via: CDex 1.70beta2
#
DISCID=740cb109
DTITLE=Trio Bravo - Quatrème monde
DYEAR=1990
DGENRE=Jazz
TTITLE0=Cassol, Massot, Debrulle/Quatrième monde
TTITLE1=Massot/Maousse in extremis
TTITLE2=Cassol/Roumanian Christmas
TTITLE3=Massot/Sautereaux on the roc
TTITLE4=Cassol/La danse des cendres
TTITLE5=Cassol/Aka song
TTITLE6=Massot, Debrulle/LAes archanges antinomiques
TTITLE7=Cassol/Not at all - A.D.N.
TTITLE8=Cassol, Massot, Debrulle/Event horizon
EXTD=YEAR: 1990
EXTT0=
EXTT1=
EXTT2=
EXTT3=
EXTT4=
EXTT5=
EXTT6=
EXTT7=
EXTT8=
PLAYORDER=
